<svg xmlns="http://www.w3.org/2000/svg" width="16" height="16" fill="none" viewBox="0 0 16 16"><g clip-path="url(#clip0)"><path fill="#C5C5C5" fill-rule="evenodd" d="M10 10H6V8.97852H10V10Z" clip-rule="evenodd"/><path fill="#C5C5C5" d="M14.5 1H1.5L1 1.5V11.5L1.5 12H4V14.5L4.854 14.854L7.707 12H14.5L15 11.5V1.5L14.5 1ZM14 11H7.5L7.146 11.146L5 13.293V11.5L4.5 11H2V2H14V11Z"/><path fill="#C5C5C5" d="M-478 -576H-378V-476H-478V-576Z"/><path fill="#C5C5C5" d="M7.5 3H8.5V8H7.5V3Z"/><path fill="#C5C5C5" d="M10.5 5L10.5 6L5.5 6L5.5 5L10.5 5Z"/></g><defs><clipPath id="clip0"><rect width="14" height="14" fill="#fff" transform="translate(1 1)"/></clipPath></defs></svg>